<mxfile host="65bd71144e">
    <diagram id="3zhsvgk7S4Df4il1h4gz" name="Page-1">
        <mxGraphModel dx="2095" dy="1436" grid="1" gridSize="10" guides="1" tooltips="1" connect="1" arrows="1" fold="1" page="1" pageScale="1" pageWidth="827" pageHeight="1169" math="0" shadow="0">
            <root>
                <mxCell id="0"/>
                <mxCell id="1" parent="0"/>
                <mxCell id="2" value="" style="edgeStyle=none;html=1;fontSize=28;" edge="1" parent="1" source="3" target="5">
                    <mxGeometry relative="1" as="geometry"/>
                </mxCell>
                <mxCell id="3" value="inicio" style="ellipse;whiteSpace=wrap;html=1;fontSize=28;fillColor=#a20025;fontColor=#ffffff;strokeColor=#6F0000;" vertex="1" parent="1">
                    <mxGeometry x="354" y="20" width="120" height="80" as="geometry"/>
                </mxCell>
                <mxCell id="4" value="" style="edgeStyle=none;html=1;fontSize=28;" edge="1" parent="1" source="5" target="6">
                    <mxGeometry relative="1" as="geometry"/>
                </mxCell>
                <mxCell id="5" value="c, f, m" style="shape=parallelogram;perimeter=parallelogramPerimeter;whiteSpace=wrap;html=1;fixedSize=1;fontSize=28;fillColor=#e3c800;fontColor=#000000;strokeColor=#B09500;" vertex="1" parent="1">
                    <mxGeometry x="354" y="190" width="120" height="60" as="geometry"/>
                </mxCell>
                <mxCell id="6" value="&lt;font style=&quot;font-size: 15px&quot;&gt;c == 'G'and f == 'C'&lt;/font&gt;" style="rhombus;whiteSpace=wrap;html=1;fontSize=28;fillColor=#647687;fontColor=#ffffff;strokeColor=#314354;" vertex="1" parent="1">
                    <mxGeometry x="340" y="290" width="150" height="150" as="geometry"/>
                </mxCell>
                <mxCell id="7" value="" style="edgeStyle=segmentEdgeStyle;endArrow=classic;html=1;fontSize=28;exitX=1;exitY=0.5;exitDx=0;exitDy=0;entryX=0.5;entryY=0;entryDx=0;entryDy=0;" edge="1" parent="1" source="6" target="47">
                    <mxGeometry width="50" height="50" relative="1" as="geometry">
                        <mxPoint x="454" y="360" as="sourcePoint"/>
                        <mxPoint x="640" y="440" as="targetPoint"/>
                        <Array as="points">
                            <mxPoint x="740" y="365"/>
                            <mxPoint x="740" y="440"/>
                            <mxPoint x="740" y="440"/>
                        </Array>
                    </mxGeometry>
                </mxCell>
                <mxCell id="13" value="" style="edgeStyle=segmentEdgeStyle;endArrow=classic;html=1;fontSize=28;exitX=0;exitY=0.5;exitDx=0;exitDy=0;entryX=0.5;entryY=0;entryDx=0;entryDy=0;" edge="1" parent="1" source="6" target="14">
                    <mxGeometry width="50" height="50" relative="1" as="geometry">
                        <mxPoint x="370" y="360" as="sourcePoint"/>
                        <mxPoint x="200" y="440" as="targetPoint"/>
                    </mxGeometry>
                </mxCell>
                <mxCell id="14" value="&lt;font style=&quot;font-size: 15px&quot;&gt;c == 'G' and f == 'P'&lt;/font&gt;" style="rhombus;whiteSpace=wrap;html=1;fontSize=28;fillColor=#647687;fontColor=#ffffff;strokeColor=#314354;" vertex="1" parent="1">
                    <mxGeometry x="126" y="410" width="150" height="160" as="geometry"/>
                </mxCell>
                <mxCell id="15" value="" style="edgeStyle=segmentEdgeStyle;endArrow=classic;html=1;fontSize=28;entryX=0.5;entryY=0;entryDx=0;entryDy=0;exitX=0.46;exitY=0.914;exitDx=0;exitDy=0;startArrow=none;exitPerimeter=0;" edge="1" parent="1" source="39" target="30">
                    <mxGeometry width="50" height="50" relative="1" as="geometry">
                        <mxPoint x="240" y="480" as="sourcePoint"/>
                        <mxPoint x="318" y="520" as="targetPoint"/>
                        <Array as="points">
                            <mxPoint x="365" y="622"/>
                        </Array>
                    </mxGeometry>
                </mxCell>
                <mxCell id="16" value="" style="edgeStyle=segmentEdgeStyle;endArrow=classic;html=1;fontSize=28;exitX=0;exitY=0.5;exitDx=0;exitDy=0;entryX=0.5;entryY=0;entryDx=0;entryDy=0;" edge="1" parent="1" source="14" target="17">
                    <mxGeometry width="50" height="50" relative="1" as="geometry">
                        <mxPoint x="160" y="480" as="sourcePoint"/>
                        <mxPoint x="230" y="830" as="targetPoint"/>
                        <Array as="points">
                            <mxPoint x="70" y="490"/>
                            <mxPoint x="70" y="780"/>
                            <mxPoint x="251" y="780"/>
                            <mxPoint x="251" y="1090"/>
                        </Array>
                    </mxGeometry>
                </mxCell>
                <mxCell id="51" style="edgeStyle=none;html=1;fontSize=28;entryX=0.5;entryY=0;entryDx=0;entryDy=0;" edge="1" parent="1" source="17" target="50">
                    <mxGeometry relative="1" as="geometry">
                        <mxPoint x="250" y="1290" as="targetPoint"/>
                        <Array as="points">
                            <mxPoint x="250" y="1220"/>
                            <mxPoint x="482" y="1220"/>
                        </Array>
                    </mxGeometry>
                </mxCell>
                <mxCell id="17" value="&lt;font style=&quot;font-size: 12px&quot;&gt;las opciones introducidas son incorrectas&lt;/font&gt;" style="shape=document;whiteSpace=wrap;html=1;boundedLbl=1;fontSize=28;fillColor=#008a00;fontColor=#ffffff;strokeColor=#005700;" vertex="1" parent="1">
                    <mxGeometry x="180" y="1080" width="140" height="80" as="geometry"/>
                </mxCell>
                <mxCell id="20" value="" style="edgeStyle=segmentEdgeStyle;endArrow=classic;html=1;fontSize=28;exitX=0;exitY=0.5;exitDx=0;exitDy=0;entryX=0.5;entryY=0;entryDx=0;entryDy=0;" edge="1" parent="1" source="30" target="17">
                    <mxGeometry width="50" height="50" relative="1" as="geometry">
                        <mxPoint x="320" y="580" as="sourcePoint"/>
                        <mxPoint x="200" y="820" as="targetPoint"/>
                        <Array as="points">
                            <mxPoint x="250" y="780"/>
                            <mxPoint x="250" y="980"/>
                        </Array>
                    </mxGeometry>
                </mxCell>
                <mxCell id="24" value="F" style="text;html=1;strokeColor=none;fillColor=none;align=center;verticalAlign=middle;whiteSpace=wrap;rounded=0;fontSize=28;" vertex="1" parent="1">
                    <mxGeometry x="250" y="330" width="60" height="30" as="geometry"/>
                </mxCell>
                <mxCell id="25" value="F" style="text;html=1;strokeColor=none;fillColor=none;align=center;verticalAlign=middle;whiteSpace=wrap;rounded=0;fontSize=28;" vertex="1" parent="1">
                    <mxGeometry x="66" y="460" width="60" height="30" as="geometry"/>
                </mxCell>
                <mxCell id="27" value="V" style="text;html=1;strokeColor=none;fillColor=none;align=center;verticalAlign=middle;whiteSpace=wrap;rounded=0;fontSize=28;" vertex="1" parent="1">
                    <mxGeometry x="530" y="330" width="60" height="30" as="geometry"/>
                </mxCell>
                <mxCell id="29" value="V" style="text;html=1;strokeColor=none;fillColor=none;align=center;verticalAlign=middle;whiteSpace=wrap;rounded=0;fontSize=28;" vertex="1" parent="1">
                    <mxGeometry x="140" y="200" width="60" height="30" as="geometry"/>
                </mxCell>
                <mxCell id="30" value="&lt;font style=&quot;font-size: 15px&quot;&gt;c == 'A' and f == 'C'&lt;/font&gt;" style="rhombus;whiteSpace=wrap;html=1;fontSize=28;fillColor=#647687;fontColor=#ffffff;strokeColor=#314354;" vertex="1" parent="1">
                    <mxGeometry x="290" y="700" width="150" height="160" as="geometry"/>
                </mxCell>
                <mxCell id="42" style="edgeStyle=none;html=1;fontSize=15;" edge="1" parent="1" source="31">
                    <mxGeometry relative="1" as="geometry">
                        <mxPoint x="250" y="1010" as="targetPoint"/>
                    </mxGeometry>
                </mxCell>
                <mxCell id="56" style="edgeStyle=none;html=1;entryX=0.5;entryY=0;entryDx=0;entryDy=0;fontSize=28;" edge="1" parent="1" source="31" target="53">
                    <mxGeometry relative="1" as="geometry">
                        <Array as="points">
                            <mxPoint x="650" y="1010"/>
                        </Array>
                    </mxGeometry>
                </mxCell>
                <mxCell id="31" value="&lt;font style=&quot;font-size: 15px&quot;&gt;c == 'A' and f == 'C'&lt;/font&gt;" style="rhombus;whiteSpace=wrap;html=1;fontSize=28;fillColor=#647687;fontColor=#ffffff;strokeColor=#314354;" vertex="1" parent="1">
                    <mxGeometry x="436" y="930" width="150" height="160" as="geometry"/>
                </mxCell>
                <mxCell id="32" value="" style="edgeStyle=segmentEdgeStyle;endArrow=classic;html=1;fontSize=28;entryX=0.5;entryY=0;entryDx=0;entryDy=0;exitX=1;exitY=0.5;exitDx=0;exitDy=0;" edge="1" parent="1" source="30" target="31">
                    <mxGeometry width="50" height="50" relative="1" as="geometry">
                        <mxPoint x="450" y="610" as="sourcePoint"/>
                        <mxPoint x="549" y="650" as="targetPoint"/>
                        <Array as="points">
                            <mxPoint x="511" y="780"/>
                        </Array>
                    </mxGeometry>
                </mxCell>
                <mxCell id="37" value="t=m+(m*0.10)" style="rounded=0;whiteSpace=wrap;html=1;fontSize=15;fillColor=#0050ef;fontColor=#ffffff;strokeColor=#001DBC;" vertex="1" parent="1">
                    <mxGeometry x="280" y="525" width="99" height="35" as="geometry"/>
                </mxCell>
                <mxCell id="38" value="" style="edgeStyle=segmentEdgeStyle;endArrow=none;html=1;fontSize=28;entryX=0.5;entryY=0;entryDx=0;entryDy=0;exitX=1;exitY=0.5;exitDx=0;exitDy=0;" edge="1" parent="1" source="14" target="37">
                    <mxGeometry width="50" height="50" relative="1" as="geometry">
                        <mxPoint x="276" y="490" as="sourcePoint"/>
                        <mxPoint x="361" y="700" as="targetPoint"/>
                    </mxGeometry>
                </mxCell>
                <mxCell id="39" value="t" style="shape=document;whiteSpace=wrap;html=1;boundedLbl=1;fontSize=28;fillColor=#008a00;fontColor=#ffffff;strokeColor=#005700;" vertex="1" parent="1">
                    <mxGeometry x="298.5" y="590" width="62" height="35" as="geometry"/>
                </mxCell>
                <mxCell id="40" value="" style="edgeStyle=segmentEdgeStyle;endArrow=none;html=1;fontSize=28;exitX=0.5;exitY=1;exitDx=0;exitDy=0;startArrow=none;" edge="1" parent="1" source="37">
                    <mxGeometry width="50" height="50" relative="1" as="geometry">
                        <mxPoint x="379" y="542.5" as="sourcePoint"/>
                        <mxPoint x="330" y="590" as="targetPoint"/>
                    </mxGeometry>
                </mxCell>
                <mxCell id="43" value="t=m-(m*0.2)" style="rounded=0;whiteSpace=wrap;html=1;fontSize=15;fillColor=#0050ef;fontColor=#ffffff;strokeColor=#001DBC;" vertex="1" parent="1">
                    <mxGeometry x="461.5" y="800" width="99" height="35" as="geometry"/>
                </mxCell>
                <mxCell id="44" value="t" style="shape=document;whiteSpace=wrap;html=1;boundedLbl=1;fontSize=28;fillColor=#008a00;fontColor=#ffffff;strokeColor=#005700;" vertex="1" parent="1">
                    <mxGeometry x="480" y="865" width="62" height="35" as="geometry"/>
                </mxCell>
                <mxCell id="45" value="" style="edgeStyle=segmentEdgeStyle;endArrow=none;html=1;fontSize=28;exitX=0.5;exitY=1;exitDx=0;exitDy=0;startArrow=none;" edge="1" parent="1" source="43">
                    <mxGeometry width="50" height="50" relative="1" as="geometry">
                        <mxPoint x="560.5" y="817.5" as="sourcePoint"/>
                        <mxPoint x="511.5" y="865" as="targetPoint"/>
                    </mxGeometry>
                </mxCell>
                <mxCell id="46" value="F" style="text;html=1;strokeColor=none;fillColor=none;align=center;verticalAlign=middle;whiteSpace=wrap;rounded=0;fontSize=28;" vertex="1" parent="1">
                    <mxGeometry x="238.5" y="750" width="60" height="30" as="geometry"/>
                </mxCell>
                <mxCell id="58" value="" style="edgeStyle=none;html=1;fontSize=28;" edge="1" parent="1" source="47" target="48">
                    <mxGeometry relative="1" as="geometry"/>
                </mxCell>
                <mxCell id="47" value="t=m-(m*0.15)" style="rounded=0;whiteSpace=wrap;html=1;fontSize=15;fillColor=#0050ef;fontColor=#ffffff;strokeColor=#001DBC;" vertex="1" parent="1">
                    <mxGeometry x="690" y="425" width="99" height="35" as="geometry"/>
                </mxCell>
                <mxCell id="52" style="edgeStyle=none;html=1;fontSize=28;entryX=0.5;entryY=0;entryDx=0;entryDy=0;" edge="1" parent="1" source="48" target="50">
                    <mxGeometry relative="1" as="geometry">
                        <mxPoint x="639.5" y="1240" as="targetPoint"/>
                        <Array as="points">
                            <mxPoint x="740" y="1220"/>
                            <mxPoint x="482" y="1220"/>
                        </Array>
                    </mxGeometry>
                </mxCell>
                <mxCell id="48" value="t" style="shape=document;whiteSpace=wrap;html=1;boundedLbl=1;fontSize=28;fillColor=#008a00;fontColor=#ffffff;strokeColor=#005700;" vertex="1" parent="1">
                    <mxGeometry x="708.5" y="510" width="62" height="35" as="geometry"/>
                </mxCell>
                <mxCell id="50" value="&lt;font style=&quot;font-size: 28px&quot;&gt;fin&lt;/font&gt;" style="ellipse;whiteSpace=wrap;html=1;fontSize=12;fillColor=#1ba1e2;fontColor=#ffffff;strokeColor=#006EAF;" vertex="1" parent="1">
                    <mxGeometry x="422" y="1290" width="120" height="80" as="geometry"/>
                </mxCell>
                <mxCell id="53" value="t=m-(m*0.2)" style="rounded=0;whiteSpace=wrap;html=1;fontSize=15;fillColor=#0050ef;fontColor=#ffffff;strokeColor=#001DBC;" vertex="1" parent="1">
                    <mxGeometry x="600" y="1070" width="99" height="35" as="geometry"/>
                </mxCell>
                <mxCell id="57" style="edgeStyle=none;html=1;entryX=0.5;entryY=0;entryDx=0;entryDy=0;fontSize=28;" edge="1" parent="1" source="54" target="50">
                    <mxGeometry relative="1" as="geometry">
                        <Array as="points">
                            <mxPoint x="650" y="1220"/>
                            <mxPoint x="482" y="1220"/>
                            <mxPoint x="482" y="1250"/>
                        </Array>
                    </mxGeometry>
                </mxCell>
                <mxCell id="54" value="t" style="shape=document;whiteSpace=wrap;html=1;boundedLbl=1;fontSize=28;fillColor=#008a00;fontColor=#ffffff;strokeColor=#005700;" vertex="1" parent="1">
                    <mxGeometry x="618.5" y="1135" width="62" height="35" as="geometry"/>
                </mxCell>
                <mxCell id="55" value="" style="edgeStyle=segmentEdgeStyle;endArrow=none;html=1;fontSize=28;exitX=0.5;exitY=1;exitDx=0;exitDy=0;startArrow=none;" edge="1" parent="1" source="53">
                    <mxGeometry width="50" height="50" relative="1" as="geometry">
                        <mxPoint x="699" y="1087.5" as="sourcePoint"/>
                        <mxPoint x="650" y="1135" as="targetPoint"/>
                    </mxGeometry>
                </mxCell>
                <mxCell id="59" value="F" style="text;html=1;strokeColor=none;fillColor=none;align=center;verticalAlign=middle;whiteSpace=wrap;rounded=0;fontSize=28;" vertex="1" parent="1">
                    <mxGeometry x="335" y="980" width="60" height="30" as="geometry"/>
                </mxCell>
                <mxCell id="60" value="V" style="text;html=1;strokeColor=none;fillColor=none;align=center;verticalAlign=middle;whiteSpace=wrap;rounded=0;fontSize=28;" vertex="1" parent="1">
                    <mxGeometry x="270" y="460" width="60" height="30" as="geometry"/>
                </mxCell>
                <mxCell id="62" value="V" style="text;html=1;strokeColor=none;fillColor=none;align=center;verticalAlign=middle;whiteSpace=wrap;rounded=0;fontSize=28;" vertex="1" parent="1">
                    <mxGeometry x="440" y="750" width="60" height="30" as="geometry"/>
                </mxCell>
                <mxCell id="63" value="V" style="text;html=1;strokeColor=none;fillColor=none;align=center;verticalAlign=middle;whiteSpace=wrap;rounded=0;fontSize=28;" vertex="1" parent="1">
                    <mxGeometry x="586" y="980" width="60" height="30" as="geometry"/>
                </mxCell>
            </root>
        </mxGraphModel>
    </diagram>
</mxfile>